<?xml version="1.0" encoding="UTF-8" standalone="no"?>
<svg
   xmlns:dc="http://purl.org/dc/elements/1.1/"
   xmlns:cc="http://creativecommons.org/ns#"
   xmlns:rdf="http://www.w3.org/1999/02/22-rdf-syntax-ns#"
   xmlns:svg="http://www.w3.org/2000/svg"
   xmlns="http://www.w3.org/2000/svg"
   xmlns:sodipodi="http://sodipodi.sourceforge.net/DTD/sodipodi-0.dtd"
   xmlns:inkscape="http://www.inkscape.org/namespaces/inkscape"
   viewBox="0 0 24 24"
   id="svg2"
   version="1.1"
   inkscape:version="0.91 r13725"
   sodipodi:docname="facebook.svg"
   width="24"
   height="24">
  <metadata
     id="metadata10">
    <rdf:RDF>
      <cc:Work
         rdf:about="">
        <dc:format>image/svg+xml</dc:format>
        <dc:type
           rdf:resource="http://purl.org/dc/dcmitype/StillImage" />
        <dc:title></dc:title>
      </cc:Work>
    </rdf:RDF>
  </metadata>
  <defs
     id="defs8" />
  <sodipodi:namedview
     pagecolor="#ffffff"
     bordercolor="#666666"
     borderopacity="1"
     objecttolerance="10"
     gridtolerance="10"
     guidetolerance="10"
     inkscape:pageopacity="0"
     inkscape:pageshadow="2"
     inkscape:window-width="1319"
     inkscape:window-height="744"
     id="namedview6"
     showgrid="false"
     showborder="false"
     fit-margin-top="0"
     fit-margin-left="0"
     fit-margin-right="0"
     fit-margin-bottom="0"
     inkscape:zoom="0.921875"
     inkscape:cx="80.439218"
     inkscape:cy="18.418999"
     inkscape:window-x="47"
     inkscape:window-y="24"
     inkscape:window-maximized="1"
     inkscape:current-layer="svg2" />
  <g
     id="g4140"
     transform="scale(0.05357143,0.05357143)">
    <rect
       y="20.610168"
       x="29.830507"
       height="427.38983"
       width="389.42371"
       id="rect4138"
       style="opacity:1;fill:#000000;fill-opacity:1;stroke:none;stroke-width:2;stroke-linejoin:round;stroke-miterlimit:4;stroke-dasharray:none;stroke-opacity:1" />
    <path
       style="fill:#ffffff"
       inkscape:connector-curvature="0"
       id="path4"
       d="m 448,24.7 0,398.5 c 0,13.7 -11.1,24.7 -24.7,24.7 l -114.2,0 0,-173.4 58.2,0 8.7,-67.6 -67,0 0,-43.2 c 0,-19.6 5.4,-32.9 33.5,-32.9 l 35.8,0 0,-60.5 c -6.2,-0.8 -27.4,-2.7 -52.2,-2.7 -51.6,0 -87,31.5 -87,89.4 l 0,49.9 -58.4,0 0,67.6 58.4,0 0,173.5 -214.4,0 C 11.1,448 0,436.9 0,423.3 L 0,24.7 C 0,11.1 11.1,0 24.7,0 L 423.2,0 C 436.9,0 448,11.1 448,24.7 Z" />
  </g>
</svg>
