<?xml version="1.0" encoding="UTF-8" standalone="no"?>
<!-- Created with Inkscape (http://www.inkscape.org/) -->

<svg
   xmlns:dc="http://purl.org/dc/elements/1.1/"
   xmlns:cc="http://creativecommons.org/ns#"
   xmlns:rdf="http://www.w3.org/1999/02/22-rdf-syntax-ns#"
   xmlns:svg="http://www.w3.org/2000/svg"
   xmlns="http://www.w3.org/2000/svg"
   xmlns:sodipodi="http://sodipodi.sourceforge.net/DTD/sodipodi-0.dtd"
   xmlns:inkscape="http://www.inkscape.org/namespaces/inkscape"
   width="1117.948"
   height="189.16701"
   id="svg2"
   version="1.1"
   inkscape:version="0.92.1 r15371"
   sodipodi:docname="logo.svg">
  <defs
     id="defs4">
    <marker
       inkscape:stockid="Arrow1Lend"
       orient="auto"
       refY="0"
       refX="0"
       id="Arrow1Lend"
       style="overflow:visible">
      <path
         id="path4766"
         d="M -10.666667,0 -14.933333,4.2666667 0,0 -14.933333,-4.2666667 Z"
         style="fill-rule:evenodd;stroke:#000000;stroke-width:0.85333335pt"
         inkscape:connector-curvature="0" />
    </marker>
    <clipPath
       id="clipPath3539"
       clipPathUnits="userSpaceOnUse">
      <path
         inkscape:connector-curvature="0"
         id="path3541"
         d="M 0,652.8 H 844.8 V 0 H 0 Z"
         style="stroke-width:1.06666672" />
    </clipPath>
  </defs>
  <sodipodi:namedview
     id="base"
     pagecolor="#ffffff"
     bordercolor="#666666"
     borderopacity="1.0"
     inkscape:pageopacity="0.0"
     inkscape:pageshadow="2"
     inkscape:zoom="0.11313709"
     inkscape:cx="-767.39545"
     inkscape:cy="-578.77423"
     inkscape:document-units="px"
     inkscape:current-layer="layer1"
     showgrid="false"
     inkscape:window-width="1366"
     inkscape:window-height="705"
     inkscape:window-x="-8"
     inkscape:window-y="-8"
     inkscape:window-maximized="1"
     units="px" />
  <metadata
     id="metadata7">
    <rdf:RDF>
      <cc:Work
         rdf:about="">
        <dc:format>image/svg+xml</dc:format>
        <dc:type
           rdf:resource="http://purl.org/dc/dcmitype/StillImage" />
        <dc:title />
      </cc:Work>
    </rdf:RDF>
  </metadata>
  <g
     inkscape:label="Layer 1"
     inkscape:groupmode="layer"
     id="layer1"
     transform="translate(0,-933.35265)">
    <rect
       y="-1755789.5"
       x="-2349534.8"
       height="2670.9333"
       width="3882.6667"
       id="rect3137"
       style="opacity:0.7;fill:#000000;fill-opacity:1;fill-rule:nonzero;stroke:#000000;stroke-width:4.26666689;stroke-linecap:butt;stroke-miterlimit:4;stroke-dasharray:none;stroke-dashoffset:0;stroke-opacity:1" />
    <ellipse
       id="path3139"
       style="opacity:0.7;fill:#000000;fill-opacity:1;fill-rule:nonzero;stroke:#000000;stroke-width:4.26666689;stroke-linecap:butt;stroke-miterlimit:4;stroke-dasharray:none;stroke-dashoffset:0;stroke-opacity:1"
       cx="-2336824.2"
       cy="-1769522.5"
       rx="2066.6667"
       ry="1026.6666" />
    <ellipse
       id="path3141"
       style="opacity:0.7;fill:#000000;fill-opacity:1;fill-rule:nonzero;stroke:#000000;stroke-width:4.26666689;stroke-linecap:butt;stroke-miterlimit:4;stroke-dasharray:none;stroke-dashoffset:0;stroke-opacity:1"
       cx="-2335271"
       cy="-1769355.9"
       rx="1526.6666"
       ry="846.66669" />
    <g
       aria-label="P"
       style="font-style:normal;font-weight:normal;font-size:116.77159119px;line-height:125%;font-family:Sans;letter-spacing:0px;word-spacing:0px;fill:#0000ff;fill-opacity:1;stroke:none;stroke-width:2.91928983px;stroke-linecap:butt;stroke-linejoin:miter;stroke-opacity:1"
       id="text108" />
    <g
       id="g946"
       style="font-style:normal;font-weight:normal;font-size:116.77159119px;line-height:125%;font-family:Sans;letter-spacing:0px;word-spacing:0px;fill:#ff0000;fill-opacity:1;stroke:none;stroke-width:2.91928983px;stroke-linecap:butt;stroke-linejoin:miter;stroke-opacity:1"
       transform="rotate(90,-174.9448,-105.0552)"
       aria-label="I" />
    <g
       aria-label="I"
       transform="matrix(0,1,1,0,784.44922,69.8896)"
       style="font-style:normal;font-weight:normal;font-size:116.77159119px;line-height:125%;font-family:Sans;letter-spacing:0px;word-spacing:0px;fill:#ff0000;fill-opacity:1;stroke:none;stroke-width:2.91928983px;stroke-linecap:butt;stroke-linejoin:miter;stroke-opacity:1"
       id="g953" />
    <g
       id="g179"
       style="fill:#366f14;fill-opacity:1"
       inkscape:export-xdpi="171.74323"
       inkscape:export-ydpi="171.74323"
       transform="matrix(1,0,0,1.0000014,1137.2841,-519.20575)">
      <g
         id="g134"
         style="fill:#366f14;fill-opacity:1;stroke-width:1.11744332"
         transform="matrix(0.89489998,0,0,0.89489998,-1213.2108,866.83051)">
        <rect
           rx="13.432579"
           ry="13.432579"
           y="654.51544"
           x="104.8446"
           height="24.04163"
           width="160.51324"
           id="rect122"
           style="opacity:1;fill:#366f14;fill-opacity:1;fill-rule:nonzero;stroke:none;stroke-width:1.17875457;stroke-linecap:round;stroke-miterlimit:4;stroke-dasharray:none;stroke-dashoffset:0;stroke-opacity:1" />
        <rect
           style="opacity:1;fill:#366f14;fill-opacity:1;fill-rule:nonzero;stroke:none;stroke-width:1.17875457;stroke-linecap:round;stroke-miterlimit:4;stroke-dasharray:none;stroke-dashoffset:0;stroke-opacity:1"
           id="rect124"
           width="160.51324"
           height="24.04163"
           x="84.844604"
           y="694.51544"
           ry="13.432579"
           rx="13.432579" />
        <path
           id="path126"
           transform="translate(0,930.51965)"
           d="m 96.865234,-196.00391 c -6.659531,0 -12.021484,5.36196 -12.021484,12.02149 0,6.65953 5.361953,12.01953 12.021484,12.01953 h 88.904296 a 76.501694,76.501694 0 0 1 26.41602,-24.04102 z"
           style="opacity:1;fill:#366f14;fill-opacity:1;fill-rule:nonzero;stroke:none;stroke-width:1.17875457;stroke-linecap:round;stroke-miterlimit:4;stroke-dasharray:none;stroke-dashoffset:0;stroke-opacity:1"
           inkscape:connector-curvature="0" />
        <path
           id="path128"
           d="m 96.865234,-156.00391 c -6.659531,0 -12.021484,5.36196 -12.021484,12.02149 0,6.65953 5.361953,12.01953 12.021484,12.01953 h 75.888676 a 76.501694,76.501694 0 0 1 4.84179,-24.04102 z"
           style="opacity:1;fill:#366f14;fill-opacity:1;fill-rule:nonzero;stroke:none;stroke-width:1.17875457;stroke-linecap:round;stroke-miterlimit:4;stroke-dasharray:none;stroke-dashoffset:0;stroke-opacity:1"
           inkscape:connector-curvature="0"
           transform="translate(0,930.51965)" />
        <path
           id="path130"
           transform="translate(0,930.51965)"
           d="m 96.865234,-116.00391 c -6.659531,0 -12.021484,5.36196 -12.021484,12.02149 0,6.65953 5.361953,12.019529 12.021484,12.019529 h 85.468746 a 76.501694,76.501694 0 0 1 -8.58789,-24.041019 z"
           style="opacity:1;fill:#366f14;fill-opacity:1;fill-rule:nonzero;stroke:none;stroke-width:1.17875457;stroke-linecap:round;stroke-miterlimit:4;stroke-dasharray:none;stroke-dashoffset:0;stroke-opacity:1"
           inkscape:connector-curvature="0" />
        <path
           style="opacity:1;fill:#366f14;fill-opacity:1;fill-rule:nonzero;stroke:none;stroke-width:13.71618176;stroke-linecap:round;stroke-miterlimit:4;stroke-dasharray:none;stroke-dashoffset:0;stroke-opacity:1"
           d="m 249.11328,-193.58398 a 64.480881,64.480881 0 0 0 -64.48047,64.48046 64.480881,64.480881 0 0 0 64.48047,64.482426 64.480881,64.480881 0 0 0 64.48047,-64.482426 64.480881,64.480881 0 0 0 -64.48047,-64.48046 z m -15.29492,27.36523 h 18.56641 c 0.70063,0 6.89006,0.1167 13.3125,3.26953 7.22054,3.61028 11.86041,9.64908 13.47851,17.46289 h 2.55274 c 3.73669,0 6.77148,3.0348 6.77148,6.77149 0,3.73669 -3.03479,6.77343 -6.77148,6.77343 h -2.9004 c -0.48482,1.93567 -1.19078,4.0808 -2.27148,6.24219 -4.5541,8.99141 -13.19534,14.01172 -24.17187,14.01172 h -11.67579 v 20.435547 c 0,3.73669 -3.03715,6.773437 -6.89062,6.773437 -3.73669,0 -6.77344,-3.036747 -6.77344,-6.773437 v -40.689457 h -4.32422 c -3.73669,0 -6.77148,-3.03674 -6.77148,-6.77343 0,-3.73669 3.03479,-6.77149 6.77148,-6.77149 h 4.32422 v -13.95898 c 0,-3.73669 3.03675,-6.77344 6.77344,-6.77344 z m 6.89062,13.66211 v 27.20703 h 11.67579 c 5.83858,0 9.57626,-1.98372 11.79492,-6.1875 1.86834,-3.50315 1.98437,-7.24107 1.98437,-7.47461 0,-5.83858 -2.10174,-9.57431 -6.53906,-11.79297 -3.50315,-1.75157 -7.24023,-1.75195 -7.24023,-1.75195 z"
           transform="translate(0,930.51965)"
           id="path132"
           inkscape:connector-curvature="0" />
      </g>
      <g
         style="fill:#366f14;fill-opacity:1;stroke-width:0.50458568"
         id="g158"
         transform="matrix(7.8773247,0,0,7.8773247,-1822.7982,-8150.7223)">
        <g
           style="fill:#366f14;fill-opacity:1;stroke-width:14.87346554"
           inkscape:export-ydpi="90.006149"
           inkscape:export-xdpi="90.006149"
           id="g136"
           transform="matrix(0.11986317,0,0,0.11986317,298.1122,897.93717)" />
        <g
           id="g156"
           style="font-style:normal;font-variant:normal;font-weight:bold;font-stretch:normal;font-size:22.72716522px;line-height:125%;font-family:'Century Gothic';-inkscape-font-specification:'Century Gothic, Bold';font-variant-ligatures:normal;font-variant-caps:normal;font-variant-numeric:normal;font-feature-settings:normal;text-align:start;letter-spacing:0px;word-spacing:0px;writing-mode:lr-tb;text-anchor:start;fill:#366f14;fill-opacity:1;stroke:none;stroke-width:0.62194252px;stroke-linecap:butt;stroke-linejoin:miter;stroke-opacity:1"
           aria-label="everypeso">
          <path
             inkscape:connector-curvature="0"
             id="path138"
             style="font-style:normal;font-variant:normal;font-weight:normal;font-stretch:normal;font-size:22.72716522px;font-family:'Century Gothic';-inkscape-font-specification:'Century Gothic';font-variant-ligatures:normal;font-variant-caps:normal;font-variant-numeric:normal;font-feature-settings:normal;text-align:start;writing-mode:lr-tb;text-anchor:start;fill:#366f14;fill-opacity:1;stroke-width:0.62194252px"
             d="m 126.79328,1231.8506 1.30948,0.688 q -0.64364,1.2651 -1.48703,2.0419 -0.84339,0.7768 -1.89763,1.1874 -1.05424,0.3995 -2.38591,0.3995 -2.95187,0 -4.61646,-1.9309 -1.66458,-1.942 -1.66458,-4.3834 0,-2.2972 1.40935,-4.0949 1.78666,-2.286 4.78291,-2.286 3.08504,0 4.92718,2.3415 1.30948,1.6535 1.33167,4.1282 h -10.85311 q 0.0444,2.1084 1.34277,3.4623 1.29838,1.3428 3.2071,1.3428 0.92107,0 1.78666,-0.3219 0.87668,-0.3218 1.48703,-0.8544 0.61035,-0.5327 1.32057,-1.7201 z m 0,-3.2515 q -0.31072,-1.2429 -0.90997,-1.9864 -0.58815,-0.7435 -1.56471,-1.1985 -0.97656,-0.455 -2.05299,-0.455 -1.77556,0 -3.05175,1.143 -0.93217,0.8323 -1.40935,2.4969 z" />
          <path
             inkscape:connector-curvature="0"
             id="path140"
             style="font-style:normal;font-variant:normal;font-weight:normal;font-stretch:normal;font-size:22.72716522px;font-family:'Century Gothic';-inkscape-font-specification:'Century Gothic';font-variant-ligatures:normal;font-variant-caps:normal;font-variant-numeric:normal;font-feature-settings:normal;text-align:start;writing-mode:lr-tb;text-anchor:start;fill:#366f14;fill-opacity:1;stroke-width:0.62194252px"
             d="m 130.26672,1223.7829 h 1.65349 l 4.0394,8.789 4.00611,-8.789 h 1.66459 l -5.52643,12.0738 h -0.27744 z" />
          <path
             inkscape:connector-curvature="0"
             id="path142"
             style="font-style:normal;font-variant:normal;font-weight:normal;font-stretch:normal;font-size:22.72716522px;font-family:'Century Gothic';-inkscape-font-specification:'Century Gothic';font-variant-ligatures:normal;font-variant-caps:normal;font-variant-numeric:normal;font-feature-settings:normal;text-align:start;writing-mode:lr-tb;text-anchor:start;fill:#366f14;fill-opacity:1;stroke-width:0.62194252px"
             d="m 154.22568,1231.8506 1.30948,0.688 q -0.64364,1.2651 -1.48703,2.0419 -0.84339,0.7768 -1.89763,1.1874 -1.05424,0.3995 -2.38591,0.3995 -2.95187,0 -4.61646,-1.9309 -1.66458,-1.942 -1.66458,-4.3834 0,-2.2972 1.40935,-4.0949 1.78665,-2.286 4.78291,-2.286 3.08504,0 4.92718,2.3415 1.30948,1.6535 1.33167,4.1282 h -10.85311 q 0.0444,2.1084 1.34277,3.4623 1.29838,1.3428 3.2071,1.3428 0.92107,0 1.78666,-0.3219 0.87668,-0.3218 1.48703,-0.8544 0.61035,-0.5327 1.32057,-1.7201 z m 0,-3.2515 q -0.31072,-1.2429 -0.90997,-1.9864 -0.58815,-0.7435 -1.56471,-1.1985 -0.97656,-0.455 -2.05299,-0.455 -1.77556,0 -3.05175,1.143 -0.93217,0.8323 -1.40935,2.4969 z" />
          <path
             inkscape:connector-curvature="0"
             id="path144"
             style="font-style:normal;font-variant:normal;font-weight:normal;font-stretch:normal;font-size:22.72716522px;font-family:'Century Gothic';-inkscape-font-specification:'Century Gothic';font-variant-ligatures:normal;font-variant-caps:normal;font-variant-numeric:normal;font-feature-settings:normal;text-align:start;writing-mode:lr-tb;text-anchor:start;fill:#366f14;fill-opacity:1;stroke-width:0.62194252px"
             d="m 158.25399,1223.7829 h 1.5869 v 1.7644 q 0.71023,-1.0431 1.49813,-1.5536 0.78791,-0.5215 1.64239,-0.5215 0.64364,0 1.37606,0.4106 l -0.8101,1.3094 q -0.48828,-0.2108 -0.82119,-0.2108 -0.77681,0 -1.49813,0.6436 -0.72132,0.6326 -1.09863,1.9753 -0.28853,1.0321 -0.28853,4.1726 v 4.0838 h -1.5869 z" />
          <path
             inkscape:connector-curvature="0"
             id="path146"
             style="font-style:normal;font-variant:normal;font-weight:normal;font-stretch:normal;font-size:22.72716522px;font-family:'Century Gothic';-inkscape-font-specification:'Century Gothic';font-variant-ligatures:normal;font-variant-caps:normal;font-variant-numeric:normal;font-feature-settings:normal;text-align:start;writing-mode:lr-tb;text-anchor:start;fill:#366f14;fill-opacity:1;stroke-width:0.62194252px"
             d="m 164.37967,1223.7829 h 1.64239 l 4.15037,9.2995 4.0283,-9.2995 h 1.65349 l -7.20211,16.4905 h -1.6424 l 2.33043,-5.3267 z" />
          <path
             inkscape:connector-curvature="0"
             id="path148"
             transform="matrix(0.34572533,0,0,0.34572533,-115.97217,1271.9981)"
             d="m 868.23633,-140.35938 c -2.84606,0 -5.42329,0.61043 -7.73438,1.83008 -2.3111,1.21966 -4.35474,3.04878 -6.13086,5.48828 v -6.41992 h -4.46289 v 11.13477 h -3.04687 v 4 h 3.04687 v 4.70703 h -3.04687 v 4 h 3.04687 v 23.855468 h 4.46289 v -18.777348 c 1.88312,2.28968 3.98978,4.01234 6.32227,5.16797 2.33249,1.15545 4.89001,1.73438 7.67187,1.73438 4.94318,0 9.15846,-1.78778 12.64649,-5.36133 1.92485,-1.97187 3.30276,-4.18384 4.17187,-6.61914 h 3.08399 v -4 h -2.1543 c 0.0959,-0.80697 0.16211,-1.62749 0.16211,-2.47656 0,-0.76218 -0.0537,-1.50172 -0.13477,-2.23047 h 2.12696 v -4 h -3.04492 c -0.87075,-2.44828 -2.27123,-4.67903 -4.24219,-6.67383 -3.53084,-3.57355 -7.77958,-5.35938 -12.74414,-5.35938 z m -0.35156,4.33204 c 2.50368,0 4.81313,0.62222 6.93164,1.86328 2.1185,1.21985 3.79987,2.9425 5.04101,5.16797 0.12588,0.22188 0.24019,0.44548 0.35352,0.66992 h -24.73633 c 0.63891,-1.3145 1.48269,-2.52508 2.55469,-3.62305 2.67486,-2.71757 5.96085,-4.07812 9.85547,-4.07812 z m -13.63672,11.70117 h 27.29297 c 0.13479,0.78367 0.20898,1.57952 0.20898,2.39062 0,0.78303 -0.0694,1.55505 -0.19727,2.31641 h -27.35546 c -0.0945,-0.70877 -0.14844,-1.43582 -0.14844,-2.1875 0,-0.87294 0.0756,-1.7084 0.19922,-2.51953 z m 1.08203,8.70703 h 24.91797 c -0.12365,0.24985 -0.25169,0.49883 -0.39063,0.74609 -1.26254,2.24687 -2.96361,4.00121 -5.10351,5.26367 -2.11849,1.24126 -4.38856,1.86133 -6.80664,1.86133 -2.4609,0 -4.80382,-0.62007 -7.0293,-1.86133 -2.2041,-1.24106 -3.90519,-2.92061 -5.10352,-5.03906 -0.17611,-0.31703 -0.33461,-0.6417 -0.48437,-0.9707 z"
             style="font-style:normal;font-variant:normal;font-weight:normal;font-stretch:normal;font-size:22.72716522px;font-family:'Century Gothic';-inkscape-font-specification:'Century Gothic';font-variant-ligatures:normal;font-variant-caps:normal;font-variant-numeric:normal;font-feature-settings:normal;text-align:start;writing-mode:lr-tb;text-anchor:start;fill:#366f14;fill-opacity:1;stroke-width:1.79894996px" />
          <path
             inkscape:connector-curvature="0"
             id="path150"
             style="font-style:normal;font-variant:normal;font-weight:normal;font-stretch:normal;font-size:22.72716522px;font-family:'Century Gothic';-inkscape-font-specification:'Century Gothic';font-variant-ligatures:normal;font-variant-caps:normal;font-variant-numeric:normal;font-feature-settings:normal;text-align:start;writing-mode:lr-tb;text-anchor:start;fill:#366f14;fill-opacity:1;stroke-width:0.62194252px"
             d="m 203.49747,1231.8506 1.30948,0.688 q -0.64365,1.2651 -1.48704,2.0419 -0.84339,0.7768 -1.89763,1.1874 -1.05423,0.3995 -2.3859,0.3995 -2.95187,0 -4.61646,-1.9309 -1.66459,-1.942 -1.66459,-4.3834 0,-2.2972 1.40935,-4.0949 1.78666,-2.286 4.78292,-2.286 3.08503,0 4.92718,2.3415 1.30947,1.6535 1.33167,4.1282 h -10.85311 q 0.0444,2.1084 1.34276,3.4623 1.29838,1.3428 3.20711,1.3428 0.92107,0 1.78666,-0.3219 0.87668,-0.3218 1.48703,-0.8544 0.61035,-0.5327 1.32057,-1.7201 z m 0,-3.2515 q -0.31072,-1.2429 -0.90997,-1.9864 -0.58816,-0.7435 -1.56472,-1.1985 -0.97655,-0.455 -2.05299,-0.455 -1.77556,0 -3.05174,1.143 -0.93217,0.8323 -1.40935,2.4969 z" />
          <path
             inkscape:connector-curvature="0"
             id="path152"
             style="font-style:normal;font-variant:normal;font-weight:normal;font-stretch:normal;font-size:22.72716522px;font-family:'Century Gothic';-inkscape-font-specification:'Century Gothic';font-variant-ligatures:normal;font-variant-caps:normal;font-variant-numeric:normal;font-feature-settings:normal;text-align:start;writing-mode:lr-tb;text-anchor:start;fill:#366f14;fill-opacity:1;stroke-width:0.62194252px"
             d="m 214.18412,1225.1035 -0.99876,1.032 q -1.24289,-1.2096 -2.43029,-1.2096 -0.75462,0 -1.29838,0.4994 -0.53267,0.4994 -0.53267,1.1652 0,0.5881 0.44389,1.1208 0.44389,0.5438 1.86434,1.2762 1.73117,0.8989 2.35262,1.7312 0.61034,0.8434 0.61034,1.8976 0,1.487 -1.04314,2.5191 -1.04314,1.032 -2.60785,1.032 -1.04314,0 -1.99751,-0.455 -0.94326,-0.455 -1.56471,-1.254 l 0.97656,-1.1097 q 1.18741,1.3428 2.51908,1.3428 0.93217,0 1.5869,-0.5993 0.65474,-0.5992 0.65474,-1.4093 0,-0.6659 -0.43279,-1.1874 -0.43279,-0.5105 -1.95312,-1.2873 -1.63129,-0.8434 -2.21945,-1.6646 -0.58815,-0.8212 -0.58815,-1.8754 0,-1.3761 0.93217,-2.2861 0.94326,-0.9099 2.37481,-0.9099 1.66459,0 3.35137,1.6313 z" />
          <path
             inkscape:connector-curvature="0"
             id="path154"
             style="font-style:normal;font-variant:normal;font-weight:normal;font-stretch:normal;font-size:22.72716522px;font-family:'Century Gothic';-inkscape-font-specification:'Century Gothic';font-variant-ligatures:normal;font-variant-caps:normal;font-variant-numeric:normal;font-feature-settings:normal;text-align:start;writing-mode:lr-tb;text-anchor:start;fill:#366f14;fill-opacity:1;stroke-width:0.62194252px"
             d="m 222.66242,1223.4722 q 2.78541,0 4.61645,2.0197 1.66459,1.8421 1.66459,4.3612 0,2.5302 -1.76446,4.4278 -1.75337,1.8865 -4.51658,1.8865 -2.77431,0 -4.53878,-1.8865 -1.75336,-1.8976 -1.75336,-4.4278 0,-2.508 1.66458,-4.3501 1.83105,-2.0308 4.62756,-2.0308 z m 0,1.5203 q -1.93092,0 -3.31808,1.4315 -1.38716,1.4316 -1.38716,3.4624 0,1.3094 0.63255,2.4414 0.63254,1.1319 1.70897,1.7533 1.07644,0.6104 2.36372,0.6104 1.28728,0 2.36371,-0.6104 1.07643,-0.6214 1.70898,-1.7533 0.63254,-1.132 0.63254,-2.4414 0,-2.0308 -1.39825,-3.4624 -1.38716,-1.4315 -3.30698,-1.4315 z" />
        </g>
      </g>
    </g>
  </g>
</svg>
