<?xml version="1.0" encoding="UTF-8" standalone="no"?>
<!-- Created with Inkscape (http://www.inkscape.org/) -->

<svg
   xmlns:dc="http://purl.org/dc/elements/1.1/"
   xmlns:cc="http://creativecommons.org/ns#"
   xmlns:rdf="http://www.w3.org/1999/02/22-rdf-syntax-ns#"
   xmlns:svg="http://www.w3.org/2000/svg"
   xmlns="http://www.w3.org/2000/svg"
   xmlns:sodipodi="http://sodipodi.sourceforge.net/DTD/sodipodi-0.dtd"
   xmlns:inkscape="http://www.inkscape.org/namespaces/inkscape"
   width="500"
   height="82.189079"
   viewBox="0 0 500.00001 82.189082"
   id="svg4190"
   version="1.1"
   inkscape:version="0.91 r13725"
   sodipodi:docname="logo.svg">
  <defs
     id="defs4192" />
  <sodipodi:namedview
     id="base"
     pagecolor="#ffffff"
     bordercolor="#666666"
     borderopacity="1.0"
     inkscape:pageopacity="0.0"
     inkscape:pageshadow="2"
     inkscape:zoom="0.98994949"
     inkscape:cx="215.75736"
     inkscape:cy="47.411768"
     inkscape:document-units="px"
     inkscape:current-layer="layer1"
     showgrid="false"
     showborder="false"
     fit-margin-top="0"
     fit-margin-left="0"
     fit-margin-right="0"
     fit-margin-bottom="0"
     units="px"
     inkscape:window-width="1319"
     inkscape:window-height="744"
     inkscape:window-x="47"
     inkscape:window-y="24"
     inkscape:window-maximized="1" />
  <metadata
     id="metadata4195">
    <rdf:RDF>
      <cc:Work
         rdf:about="">
        <dc:format>image/svg+xml</dc:format>
        <dc:type
           rdf:resource="http://purl.org/dc/dcmitype/StillImage" />
        <dc:title />
      </cc:Work>
    </rdf:RDF>
  </metadata>
  <g
     inkscape:label="Layer 1"
     inkscape:groupmode="layer"
     id="layer1"
     transform="translate(52.85714,-514.1248)">
    <g
       transform="matrix(0.48530552,0,0,0.48530552,708.5398,-820.46618)"
       id="g5247"
       inkscape:export-xdpi="90.006149"
       inkscape:export-ydpi="90.006149"
       style="stroke-width:3.11645365;fill:#ffffff">
      <g
         transform="translate(11.785113,207.41799)"
         id="g5249"
         style="stroke-width:3.11645365;fill:#ffffff">
        <path
           style="font-style:normal;font-variant:normal;font-weight:normal;font-stretch:normal;font-size:32px;line-height:125%;font-family:'SF New Republic';-inkscape-font-specification:'SF New Republic';text-align:start;letter-spacing:0px;word-spacing:0px;writing-mode:lr-tb;text-anchor:start;fill:#ffffff;fill-opacity:1;stroke:none;stroke-width:0.94086295"
           d="m -976.30176,2571.969 0,111.6282 13.90632,0 1.29253,0 0,-0.094 -0.59435,0 c -1.41311,-6.0846 -1.95919,-12.2471 -0.83968,-19.1708 0.23893,-1.4781 0.64885,-1.5777 1.66991,-0.8963 13.66341,9.1212 11.19473,-22.0094 -0.86797,-10.3684 -1.71531,1.6553 -3.08377,0.5137 -2.96244,-1.302 0.34378,-5.147 1.62553,-10.6747 2.93412,-16.4631 4.0633,0.8144 8.25315,1.4019 12.83083,0.802 1.33908,-0.1756 2.70534,-0.7922 1.50009,-2.3681 -9.754,-12.7532 21.50869,-12.076 10.56656,0.3302 -1.21817,1.3812 -1.83695,2.2679 0.46227,2.9624 1.74545,0.5271 4.42313,0.8355 7.43433,0.1416 3.00809,-0.6932 6.66865,-1.6438 10.67036,-2.0662 -0.43224,7.5145 -3.62379,14.4978 -2.63222,21.0294 0.3569,2.3514 1.29833,2.5861 2.86806,1.0283 11.37774,-11.2916 14.40455,19.5552 0.85855,11.0666 -1.32308,-0.829 -2.16789,-1.9539 -2.4624,-0.1321 -0.82736,5.1178 -0.77097,10.3356 0.73589,15.5008 l 1.19818,0 14.0007,0 0,-48.8326 c 0,-9.6506 -3.11487,-18.0562 -9.33067,-25.1994 -6.54293,-7.4147 -14.59151,-11.0945 -24.13327,-11.0949 -10.03265,0 -18.4382,3.8524 -25.19938,11.595 l 0,-38.0963 z"
           id="path5251"
           inkscape:connector-curvature="0" />
        <g
           id="g5253"
           transform="matrix(0.27333034,0,0,0.27333034,-1326.415,2213.0082)"
           style="stroke-width:3.11645365;fill:#ffffff">
          <path
             style="fill:#ffffff;stroke:none;stroke-width:3.32421803"
             d="m 94.925729,1205.7776 c -133.184693,0.2449 -265.781599,93.0243 -144.63328,274.9999 30.3312,45.5604 49.3212804,106.457 58.8000004,183.6334 l 176.4000006,0 c 4.93994,-78.1906 30.27562,-135.26 57.56661,-178.4667 118.82037,-188.1125 -14.94827,-280.4116 -148.133331,-280.1666 z m -32.899947,104.7666 9.933334,3.9333 9.933333,3.9 -0.2,5.7333 c -0.112533,3.153 -0.198293,6.2872 -0.2,6.9667 -0.02347,8.8438 6.94464,16.1007 15.8,16.4334 0.664747,0.025 11.427091,-0.6097 13.466661,-0.8 l 0.4,-0.033 4.23339,9.7667 c 2.32917,5.3739 4.2208,9.8143 4.19989,9.8667 -0.0203,0.051 -2.15808,2.0617 -4.73322,4.4665 -2.57558,2.4051 -4.88032,4.5856 -5.13344,4.8668 -2.08651,2.3179 -3.41301,5.0382 -3.96661,8.1333 -0.8911,4.9812 0.68768,10.2606 4.16671,14 0.6351,0.6826 4.02155,3.7217 10.16662,9.0667 l 0.2,0.1666 -3.90006,9.9333 -3.93322,9.9334 -6.43339,-0.2 c -3.52874,-0.1241 -6.882664,-0.2034 -7.466664,-0.1668 -1.314667,0.083 -3.1408,0.4615 -4.466667,0.9334 -4.73664,1.687 -8.686507,5.799 -10.100053,10.5333 -0.493654,1.6551 -0.7584,3.4766 -0.733227,5.0334 0,0.3059 0.204053,3.3471 0.43328,6.7667 0.229013,3.4193 0.389867,6.2749 0.36672,6.3332 -0.05547,0.1394 -19.394027,8.5219 -19.53344,8.4668 -0.05867,-0.023 -2.082773,-2.1411 -4.499947,-4.7334 -2.41728,-2.5918 -4.781546,-5.0451 -5.233386,-5.4333 -3.27872,-2.8164 -7.277974,-4.1517 -11.63328,-3.8667 -3.295787,0.2158 -6.375787,1.4064 -9.066667,3.4667 -1.20992,0.9264 -1.800427,1.5675 -6.333333,6.7666 l -3.966614,4.5333 -9.933333,-3.9332 -9.9333329,-3.9334 0,-0.2667 c 0.4845866,-13.0288 0.4846933,-14.0386 0,-16.1333 -0.6370134,-2.7677 -1.90144,-5.2234 -3.76672004,-7.3 -3.37557336,-3.7579 -7.97210666,-5.661 -13.03333406,-5.4332 -0.5264,0.023 -3.506293,0.1874 -6.633333,0.4 -3.12704,0.2119 -5.748907,0.3867 -5.8,0.3666 -0.0512,-0.02 -1.972,-4.4251 -4.3,-9.8 l -4.233333,-9.8 0.3,-0.2667 c 1.717546,-1.5206 9.383466,-8.7719 9.866666,-9.3333 1.411414,-1.6406 2.244427,-3.0602 3.033334,-5.2667 0.5936,-1.6611 0.79216,-2.6814 0.9,-4.2999 0.3296,-4.9508 -1.55248,-9.7309 -5.166667,-13.1001 -0.497067,-0.4635 -2.85616,-2.5599 -5.233333,-4.6333 l -4.333334,-3.7667 3.933334,-9.9333 3.933333,-9.9334 0.266667,0 c 0.149226,-6e-4 3.063573,0.081 6.466666,0.2 3.4032,0.1194 6.591627,0.201 7.1,0.1666 2.01952,-0.1347 3.9288007,-0.6167 5.8333341,-1.4999 1.5418666,-0.715 2.7210666,-1.5194 4,-2.6667 1.94666663,-1.7461 3.07759996,-3.3204 4.1,-5.7 0.88032,-2.0463 1.26016,-3.6665 1.36672,-5.7999 0.021333,-0.4233 -0.1421867,-3.5127 -0.36672,-6.8668 -0.2245334,-3.3536 -0.4193067,-6.3328 -0.43328,-6.6333 l -0.033067,-0.5333 9.6666669,-4.2 c 5.30816,-2.3031 9.711146,-4.1882 9.8,-4.2 0.116053,-0.015 1.376853,1.255 4.4,4.4999 4.875733,5.2341 5.124586,5.4925 6.466666,6.4668 1.40288,1.0179 2.301334,1.4942 4.066667,2.1334 2.435093,0.881 4.361493,1.126 6.966613,0.8999 1.71168,-0.1486 3.09088,-0.4639 4.666667,-1.1001 1.94688,-0.7854 3.620373,-1.852 5.100053,-3.2332 0.372374,-0.3477 2.493227,-2.7352 4.733334,-5.3001 2.240213,-2.5644 4.16384,-4.7243 4.266666,-4.8333 l 0.2,-0.2 z m -18.899946,40.8 c -5.058027,-0.04 -9.979734,0.9738 -14.733334,3.0333 -7.609706,3.2976 -13.597546,8.766 -17.733333,16.2334 -0.8922663,1.6109 -2.6434129,6.0616 -3.1000529,7.8666 -1.2078934,4.7456 -1.5050667,9.6521 -0.8666667,14.4 0.2030933,1.51 0.79072,4.1664 1.3000533,5.8334 0.8833067,2.89 2.6728533,6.629 4.4332793,9.3334 4.460907,6.8521 11.597547,12.2809 19.333334,14.6999 l 0.03307,0 c 6.283307,1.9529 12.4912,2.2411 18.83328,0.8667 12.267307,-2.6583 22.406827,-11.4659 26.6,-23.1001 2.796267,-7.7577 3.000534,-15.5173 0.56672,-23.5332 -0.546346,-1.7994 -2.15328,-5.4601 -3.13344,-7.1667 -0.848853,-1.4792 -2.350186,-3.7186 -3.333333,-4.9334 -2.969067,-3.6691 -6.808853,-6.8346 -11.099947,-9.2 -1.630186,-0.8986 -6.082133,-2.6802 -7.866666,-3.1333 -3.10208,-0.7829 -6.198614,-1.1761 -9.23328,-1.2 z m 124.566394,53.7 7.2,2.9 c 3.97355,1.6021 7.25067,2.9624 7.26667,3 0.016,0.037 -0.0608,2.1582 -0.16672,4.7333 -0.1056,2.5753 -0.17909,4.9238 -0.16661,5.2 0.10346,2.2789 0.7984,4.3706 2.10005,6.2667 2.09451,3.0517 5.63445,5.0063 9.36661,5.1667 0.6816,0.029 4.02123,-0.1604 9.96672,-0.5333 l 0.1999,0 3.03338,7.2 3.06667,7.1666 -3.46667,3.2 c -1.90144,1.7479 -3.68149,3.4141 -3.96672,3.7333 -0.6416,0.7188 -1.38528,1.8731 -1.83328,2.8 -1.6001,3.3114 -1.52938,7.4752 0.16672,10.6667 0.59254,1.1154 1.38742,2.2023 2.1999,3 0.15968,0.1571 1.82432,1.6372 3.70005,3.3001 1.87563,1.6627 3.41536,3.0577 3.43339,3.0999 0.0427,0.1003 -5.7327,14.4239 -5.83339,14.4667 -0.0416,0.018 -2.17643,-0.058 -4.76672,-0.1667 -2.59008,-0.1082 -5.06539,-0.1632 -5.49995,-0.1334 -3.15413,0.2177 -5.94506,1.5811 -8.06666,3.9667 -1.60544,1.8053 -2.5904,3.9783 -2.93334,6.4333 -0.15434,1.1041 -0.14346,1.7308 0.16672,6.7667 l 0.26667,4.4333 -7.2,3.0334 -7.2,3.0667 -0.10027,-0.1334 -0.0331,0 c -6.44011,-7.0337 -6.94006,-7.5569 -8.26667,-8.4 -1.75371,-1.1142 -3.69568,-1.7434 -5.73333,-1.8666 -3.68822,-0.2232 -7.048,1.115 -9.56672,3.8334 -0.26198,0.2825 -1.71414,1.9166 -3.23328,3.6332 -1.51958,1.7166 -2.79638,3.151 -2.83339,3.1668 -0.0363,0.015 -3.32693,-1.2969 -7.29995,-2.9001 l -7.23338,-2.9 0.0331,-0.3 c 0.11307,-1.6741 0.37024,-9.3926 0.33323,-9.9333 -0.10741,-1.5792 -0.41077,-2.7456 -1.13323,-4.3001 -0.544,-1.17 -0.95818,-1.8017 -1.73333,-2.6999 -2.3712,-2.7473 -5.82069,-4.2687 -9.43339,-4.1666 -0.49685,0.014 -2.79712,0.1253 -5.09994,0.2666 l -4.16672,0.2667 -3.06667,-7.2 -3.066664,-7.2 0.16672,-0.1333 c 0.07787,-0.077 1.63296,-1.5143 3.466664,-3.2 1.8335,-1.6861 3.51947,-3.2878 3.76662,-3.5668 0.9824,-1.1076 1.72853,-2.3286 2.26666,-3.7666 0.43563,-1.1644 0.65664,-2.179 0.73333,-3.4334 0.1168,-1.9092 -0.1105,-3.3358 -0.8,-5.0999 -0.59306,-1.5179 -1.22623,-2.5343 -2.26666,-3.7001 -0.20608,-0.2312 -1.89376,-1.7688 -3.73333,-3.4 -1.839684,-1.6311 -3.471684,-3.0839 -3.633391,-3.2333 l -0.299947,-0.2667 2.900054,-7.1332 c 1.581124,-3.926 2.893014,-7.1816 2.933334,-7.2334 0.0523,-0.067 1.392,-0.036 4.63328,0.1002 5.2272,0.2214 5.46752,0.2155 6.66666,0.033 1.25355,-0.1904 1.95264,-0.4259 3.2,-1 1.72086,-0.7919 2.85942,-1.6439 4.09995,-3.0999 0.81525,-0.9567 1.37269,-1.8261 1.86667,-2.9668 0.61045,-1.4091 0.93888,-2.8208 1.0001,-4.3 0.0149,-0.3721 -0.0832,-2.7136 -0.23338,-5.2 -0.15083,-2.486 -0.29771,-4.5904 -0.29995,-4.7 l 0,-0.2 7.2,-3.0666 7.2,-3.0667 2.83328,3.1001 c 1.56064,1.6993 3.11861,3.3784 3.46667,3.7333 4.53024,4.6174 11.88458,4.8087 16.66666,0.4333 0.35904,-0.3283 5.63574,-6.1866 6.6,-7.3334 l 0.2,-0.2333 z m -15.33333,29.8001 c -2.2032,0.082 -4.44405,0.4258 -6.6,1.0332 -1.31061,0.3694 -4.50475,1.7526 -5.66667,2.4334 -5.38026,3.1616 -9.29856,7.644 -11.56672,13.2666 -2.26901,5.6259 -2.54869,11.5536 -0.86656,17.5667 0.36256,1.2971 1.71062,4.5255 2.4,5.7001 1.80843,3.0916 4.16214,5.7555 6.93334,7.8999 0.88128,0.682 2.57856,1.7937 3.69994,2.4 1.94454,1.0513 4.79424,2.0628 7.10006,2.5666 5.85024,1.2789 12.35882,0.4557 17.63328,-2.2666 4.28501,-2.2115 7.66581,-5.2536 10.26666,-9.2333 5.02283,-7.6855 5.75872,-17.4878 1.96672,-25.7001 -2.52885,-5.476 -6.41525,-9.609 -11.8001,-12.5333 -1.20854,-0.6561 -3.91318,-1.7477 -5.29995,-2.1333 -1.20203,-0.334 -3.13099,-0.7057 -4.26667,-0.8333 -1.2865,-0.1446 -2.61141,-0.2159 -3.93333,-0.1666 z m -44.66667,67.6 6.23339,1.9666 6.26667,1.9666 0.10026,3.5 c 0.0715,1.9294 0.17078,3.8518 0.2,4.2667 0.38027,5.3997 4.97931,9.5257 10.4,9.3333 0.40683,-0.015 6.93014,-0.8926 8.16662,-1.1 l 0.23338,-0.066 3.03339,5.7999 c 1.66187,3.1768 3.01024,5.8007 2.99989,5.8333 -0.0107,0.033 -1.20181,1.3504 -2.66666,2.9334 -1.46464,1.583 -2.79147,3.0174 -2.93334,3.2 -1.17034,1.5081 -1.86677,3.2193 -2.06656,5.1333 -0.3217,3.0806 0.87606,6.2394 3.16662,8.3666 0.41834,0.3885 2.6433,2.0783 6.63328,5.0667 l 0.13333,0.1003 -1.96661,6.2666 -1.96662,6.2334 -3.90005,0.1333 c -2.15968,0.082 -4.24512,0.1847 -4.6,0.2333 -0.79883,0.1097 -1.87829,0.4526 -2.66667,0.8 -2.8161,1.2412 -5.04853,3.9134 -5.70005,6.8667 -0.22816,1.0321 -0.28501,2.1506 -0.19989,3.0999 0.016,0.1866 0.27392,2.0562 0.56661,4.1334 0.29248,2.0773 0.51157,3.7966 0.50005,3.8334 -0.0277,0.087 -11.47946,6.0605 -11.56672,6.0332 -0.0363,-0.012 -1.37536,-1.2256 -2.96661,-2.6999 -1.59136,-1.4745 -3.10699,-2.8498 -3.40011,-3.0667 -2.12736,-1.5729 -4.65386,-2.2018 -7.29994,-1.8334 -2.00224,0.279 -3.816001,1.1222 -5.366721,2.5001 -0.697387,0.6194 -1.031573,1.0569 -3.566613,4.4333 l -2.23328,2.9333 -6.233387,-1.9666 -6.233387,-1.9333 -0.03307,-0.1667 0.03307,0 c -0.285866,-7.9753 -0.345493,-8.5764 -0.733226,-9.8333 -0.512427,-1.6614 -1.40192,-3.1158 -2.633387,-4.3 -2.228373,-2.1435 -5.120427,-3.1315 -8.2,-2.7667 -0.32032,0.038 -2.133867,0.2975 -4.033387,0.5666 -1.899306,0.2693 -3.46784,0.4767 -3.499946,0.4668 -0.032,-0.011 -1.438934,-2.5895 -3.099947,-5.7667 l -3.000107,-5.8 0.16672,-0.1667 c 0.980587,-1.005 5.330134,-5.7691 5.6,-6.1333 0.788374,-1.0646 1.250347,-1.9845 1.633387,-3.3667 0.287893,-1.0407 0.373013,-1.6737 0.366613,-2.6667 -0.02027,-3.0368 -1.40992,-5.8711 -3.76672,-7.7667 -0.324266,-0.2607 -1.856106,-1.4404 -3.399893,-2.5999 l -2.8,-2.1 1.966613,-6.2334 1.933334,-6.2667 0.166613,0 c 0.09067,-0.011 1.88384,-0.088 3.96672,-0.1666 2.082773,-0.079 4.024533,-0.1566 4.333333,-0.2 1.226774,-0.1726 2.376854,-0.5758 3.500054,-1.2 0.909226,-0.5052 1.60384,-1.0425 2.333226,-1.8 1.1104,-1.1529 1.715414,-2.1685 2.233387,-3.6667 0.44608,-1.2885 0.629653,-2.2596 0.6,-3.5666 -0.01067,-0.2593 -0.246507,-2.1627 -0.533333,-4.2001 -0.286827,-2.0374 -0.54464,-3.8505 -0.56672,-4.0333 l -0.06613,-0.3333 5.733334,-2.9667 c 3.137493,-1.6428 5.74624,-3.022 5.799893,-3.0333 0.0704,-0.015 0.876373,0.7205 2.866773,2.5667 3.209814,2.9771 3.370454,3.1318 4.23328,3.6666 0.90176,0.5589 1.493867,0.789 2.6,1.1 1.52608,0.4288 2.719574,0.5211 4.299947,0.2667 1.038293,-0.1672 1.866347,-0.4414 2.8,-0.9 1.153487,-0.5665 2.091837,-1.2908 2.933327,-2.2001 0.21184,-0.2289 1.41376,-1.7675 2.66667,-3.4332 1.25312,-1.6656 2.34208,-3.0956 2.4,-3.1667 l 0.10026,-0.1333 z m -7.833381,25.7333 c -3.7616,-0.065 -7.361387,0.7698 -10.733227,2.5333 -4.49824,2.3526 -7.9088,5.9901 -10.100053,10.7333 -0.472853,1.0232 -1.335147,3.8112 -1.533333,4.9333 -0.525654,2.9509 -0.501654,5.9302 0.100266,8.8 0.191574,0.913 0.68128,2.5384 1.066667,3.5334 0.668373,1.7248 1.904747,3.9279 3.100053,5.5 3.03296,3.9891 7.629547,6.972 12.466667,8.1 3.92992,0.9163 7.750291,0.8239 11.566721,-0.3 7.36992,-2.1703 13.15968,-8.0108 15.2,-15.3 1.36053,-4.8608 1.14357,-9.6152 -0.70006,-14.4 -0.41386,-1.0738 -1.55893,-3.2354 -2.23328,-4.2334 -0.58453,-0.865 -1.61237,-2.169 -2.26666,-2.8666 -1.97632,-2.1073 -4.4416,-3.8809 -7.16672,-5.1334 -1.03542,-0.4757 -3.85717,-1.3363 -4.96661,-1.5333 -1.28587,-0.2263 -2.54614,-0.3452 -3.800111,-0.3666 z"
             id="path5255"
             inkscape:connector-curvature="0"
             sodipodi:nodetypes="ssccssccccccccccccccccccccccccccccccccccccscccccccccccccccccccccccccccccscccccccccccccccccsccccccccccccccccccccccsccccsccccccccccccccccccccccccccccccccccscccccccccccccccccsccccccccccccccsccccccccccccccccccccccccccsccccccccccccccccccccccccccccccccscccccccscccccccccccccccccsccccc" />
          <path
             d="m 76.001508,1671.234 28.162372,2.7003 59.40823,5.6964 c 11.4242,1.0956 17.02542,2.9444 16.80369,5.5466 -0.36863,4.3198 -10.04198,6.7717 -29.02003,7.3556 -18.97843,0.5842 -37.04521,0.053 -54.200355,-1.5915 l -27.76708,-0.046 c -9.952502,0.7906 -23.705689,0.3442 -41.2596,-1.3391 -9.381289,-0.8993 -13.905713,-3.2975 -13.573286,-7.1947 0.257941,-3.0247 3.216071,-6.3403 8.8744,-9.9464 5.658193,-3.6058 10.119364,-5.2522 13.383547,-4.9393 z"
             style="font-style:normal;font-variant:normal;font-weight:normal;font-stretch:normal;font-size:311.33575439px;line-height:125%;font-family:'Bilbo Swash Caps';-inkscape-font-specification:'Bilbo Swash Caps';text-align:start;letter-spacing:0px;word-spacing:0px;writing-mode:lr-tb;text-anchor:start;fill:#ffffff;fill-opacity:1;stroke:none;stroke-width:3.32421803"
             id="path5257"
             inkscape:connector-curvature="0"
             sodipodi:nodetypes="cccccccccccc" />
          <path
             sodipodi:nodetypes="cccccccccccc"
             inkscape:connector-curvature="0"
             id="path5259"
             style="font-style:normal;font-variant:normal;font-weight:normal;font-stretch:normal;font-size:311.33575439px;line-height:125%;font-family:'Bilbo Swash Caps';-inkscape-font-specification:'Bilbo Swash Caps';text-align:start;letter-spacing:0px;word-spacing:0px;writing-mode:lr-tb;text-anchor:start;fill:#ffffff;fill-opacity:1;stroke:none;stroke-width:3.32421803"
             d="m 88.818509,1721.2746 9.024281,0.8652 19.03662,1.8254 c 3.66074,0.3512 5.38017,1.8279 5.15831,4.43 -0.36849,4.3197 -3.66249,7.3834 -9.88194,9.1906 -6.21961,1.8076 -12.07798,2.4477 -17.575124,1.9203 l -9.048068,1.7496 c -3.289469,1.4294 -7.746656,1.8744 -13.371577,1.3348 -3.006128,-0.288 -4.342994,-2.3805 -4.010596,-6.2776 0.25797,-3.0249 1.412778,-6.5133 3.464426,-10.4653 2.051578,-3.9515 3.600346,-5.8771 4.646326,-5.7771 z" />
          <path
             sodipodi:nodetypes="cccccccccccc"
             inkscape:connector-curvature="0"
             id="path5261"
             style="font-style:normal;font-variant:normal;font-weight:normal;font-stretch:normal;font-size:311.33575439px;line-height:125%;font-family:'Bilbo Swash Caps';-inkscape-font-specification:'Bilbo Swash Caps';text-align:start;letter-spacing:0px;word-spacing:0px;writing-mode:lr-tb;text-anchor:start;fill:#ffffff;fill-opacity:1;stroke:none;stroke-width:3.32421803"
             d="m 76.001508,1696.834 28.162372,2.7003 59.40823,5.6964 c 11.4242,1.0956 17.02542,2.9444 16.80369,5.5466 -0.36863,4.3198 -10.04198,6.7717 -29.02003,7.3556 -18.97843,0.5842 -37.04521,0.053 -54.200355,-1.5915 l -27.76708,-0.046 c -9.952502,0.7906 -23.705689,0.3442 -41.2596,-1.3391 -9.381289,-0.8993 -13.905713,-3.2975 -13.573286,-7.1947 0.257941,-3.0247 3.216071,-6.3403 8.8744,-9.9464 5.658193,-3.6058 10.119364,-5.2522 13.383547,-4.9393 z" />
        </g>
        <path
           sodipodi:nodetypes="ccccccccccccccccc"
           inkscape:connector-curvature="0"
           id="path5263"
           style="font-style:normal;font-variant:normal;font-weight:normal;font-stretch:normal;font-size:32px;line-height:125%;font-family:'SF New Republic';-inkscape-font-specification:'SF New Republic';text-align:start;letter-spacing:0px;word-spacing:0px;writing-mode:lr-tb;text-anchor:start;fill:#ffffff;fill-opacity:1;stroke:none;stroke-width:3.32421803"
           d="m -1474.7733,2684.1314 -19.2199,0 -13.4131,-36.8861 -13.4131,36.8861 -19.22,0 -40.648,-111.6398 14.8031,0 35.4137,97.1629 15.7031,-42.8562 7.3612,-20.4464 7.1721,-17.7362 14.9671,0 -14.7787,38.2646 15.7031,42.7742 35.2504,-97.1629 14.9673,0 z" />
        <path
           sodipodi:nodetypes="cscscccscscccccscc"
           inkscape:connector-curvature="0"
           id="path5265"
           style="font-style:normal;font-variant:normal;font-weight:normal;font-stretch:normal;font-size:32px;line-height:125%;font-family:'SF New Republic';-inkscape-font-specification:'SF New Republic';text-align:start;letter-spacing:0px;word-spacing:0px;writing-mode:lr-tb;text-anchor:start;fill:#ffffff;fill-opacity:1;stroke:none;stroke-width:3.32421803"
           d="m -1370.1879,2620.9094 c -5.6159,-5.2886 -12.35,-7.9332 -20.2015,-7.9332 -8.1785,0 -15.0761,2.89 -20.692,8.6698 -5.6704,5.7794 -8.5057,12.7043 -8.5057,20.7736 0,2.9445 0.5454,6.107 1.6355,9.4874 z m 10.3869,52.0168 c -8.4512,8.2881 -18.5657,12.4313 -30.343,12.4313 -11.9411,0 -22.1917,-4.1432 -30.7517,-12.4313 -8.4516,-8.3423 -12.6772,-18.5107 -12.6772,-30.5066 0,-12.0498 4.1986,-22.2734 12.5955,-30.6703 8.3963,-8.5052 18.5924,-12.7583 30.588,-12.7586 8.5603,3e-4 16.4662,2.345 23.7187,7.0339 7.2514,4.6346 12.5949,10.9048 16.03,18.8106 l -59.7049,38.7674 c 5.616,5.2887 12.3501,7.9333 20.2016,7.9333 8.1244,0 14.9673,-2.8077 20.5289,-8.4243 z" />
        <path
           inkscape:connector-curvature="0"
           id="path5267"
           style="font-style:normal;font-variant:normal;font-weight:normal;font-stretch:normal;font-size:32px;line-height:125%;font-family:'SF New Republic';-inkscape-font-specification:'SF New Republic';text-align:start;letter-spacing:0px;word-spacing:0px;writing-mode:lr-tb;text-anchor:start;fill:#ffffff;fill-opacity:1;stroke:none;stroke-width:3.32421803"
           d="m -1234.8705,2684.1314 0,-111.6398 13.9035,0 0,111.6398 z" />
        <path
           inkscape:connector-curvature="0"
           id="path5269"
           style="font-style:normal;font-variant:normal;font-weight:normal;font-stretch:normal;font-size:32px;line-height:125%;font-family:'SF New Republic';-inkscape-font-specification:'SF New Republic';text-align:start;letter-spacing:0px;word-spacing:0px;writing-mode:lr-tb;text-anchor:start;fill:#ffffff;fill-opacity:1;stroke:none;stroke-width:3.32421803"
           d="m -1175.575,2614.3665 0,69.7649 -13.9859,0 0,-69.7649 -13.9034,0 0,-13.9852 13.9034,0 0,-27.8897 13.9859,0 0,27.8897 13.9855,0 0,13.9852 z" />
        <path
           inkscape:connector-curvature="0"
           id="path5271"
           style="font-style:normal;font-variant:normal;font-weight:normal;font-stretch:normal;font-size:32px;line-height:125%;font-family:'SF New Republic';-inkscape-font-specification:'SF New Republic';text-align:start;letter-spacing:0px;word-spacing:0px;writing-mode:lr-tb;text-anchor:start;fill:#ffffff;fill-opacity:1;stroke:none;stroke-width:3.32421803"
           d="m -1085.691,2684.1314 0,-48.8274 c 0,-6.1607 -2.1812,-11.4224 -6.5429,-15.7849 -4.3625,-4.3617 -9.6241,-6.5429 -15.7855,-6.5429 -6.052,0 -11.3133,2.1812 -15.7844,6.5429 -4.3622,4.3625 -6.5433,9.6242 -6.5433,15.7849 l 0,48.8274 -13.9035,0 0,-111.6398 13.9035,0 0,38.113 c 6.7614,-7.7425 15.1577,-11.6136 25.1904,-11.6139 9.5417,3e-4 17.5844,3.708 24.1274,11.1228 6.216,7.143 9.3235,15.5399 9.3235,25.1905 l 0,48.8274 z" />
        <path
           inkscape:connector-curvature="0"
           id="path5273"
           style="font-style:normal;font-variant:normal;font-weight:normal;font-stretch:normal;font-size:32px;line-height:125%;font-family:'SF New Republic';-inkscape-font-specification:'SF New Republic';text-align:start;letter-spacing:0px;word-spacing:0px;writing-mode:lr-tb;text-anchor:start;fill:#ffffff;fill-opacity:1;stroke:none;stroke-width:3.32421803"
           d="m -1058.1692,2711.939 -16.439,0 17.9931,-27.8076 0,-83.7501 13.9034,0 0,62.2399 40.4849,-62.2399 16.6027,0 z" />
        <path
           inkscape:connector-curvature="0"
           style="font-style:normal;font-variant:normal;font-weight:normal;font-stretch:normal;font-size:32px;line-height:125%;font-family:'SF New Republic';-inkscape-font-specification:'SF New Republic';text-align:start;letter-spacing:0px;word-spacing:0px;writing-mode:lr-tb;text-anchor:start;fill:#ffffff;fill-opacity:1;stroke:none;stroke-width:3.32421803"
           d="m -846.11845,2598.982 c -11.99545,3e-4 -22.17008,4.2613 -30.56666,12.7667 -8.39692,8.3969 -12.6,18.6169 -12.6,30.6667 0,11.9958 4.21537,22.1576 12.66666,30.4999 8.56038,8.2881 18.82558,12.4334 30.76667,12.4334 11.7773,0 21.88204,-4.1453 30.33333,-12.4334 l -9.8,-9.8 c -5.56159,5.6167 -12.40893,8.4333 -20.53333,8.4333 -7.85154,0 -14.58404,-2.6445 -20.2,-7.9332 l 59.7,-38.7667 c -3.43542,-7.9058 -8.78155,-14.1987 -16.03333,-18.8333 -7.25211,-4.689 -15.17296,-7.0331 -23.73334,-7.0334 z m -3.3,9.3333 c 2.01557,4.3175 6.03726,12.9405 6.63334,11.4667 5.11239,-12.6387 16.59931,7.7976 4.03333,5.1667 0.0129,2.7845 2.39433,5.243 5.2,7.7334 l -28.03333,18.0999 -15.96667,-25 c 2.06122,-2.0183 3.88686,-4.1735 8.6,-5.9667 1.54431,-0.5876 1.1096,0.4705 1.1,0.8334 -0.32306,11.3839 16.96274,-1.2366 5.96667,-3.9666 -0.72131,-0.3381 -1.68888,-0.5669 -1,-1.6 0.62993,-1.4105 7.38198,-4.1528 13.46666,-6.7668 z"
           id="path5275" />
        <path
           inkscape:connector-curvature="0"
           style="font-style:normal;font-variant:normal;font-weight:normal;font-stretch:normal;font-size:32px;line-height:125%;font-family:'SF New Republic';-inkscape-font-specification:'SF New Republic';text-align:start;letter-spacing:0px;word-spacing:0px;writing-mode:lr-tb;text-anchor:start;fill:#ffffff;fill-opacity:1;stroke:none;stroke-width:3.32421803"
           d="m -756.25178,2598.982 c -11.88638,3e-4 -22.094,4.2613 -30.6,12.7667 -8.4513,8.4517 -12.66667,18.6133 -12.66667,30.5 0,11.6678 4.04295,21.8063 12.16667,30.3666 8.17877,8.5061 18.08648,12.7334 29.7,12.7334 12.26832,0 22.53354,-4.5856 30.76667,-13.8001 l 0,12.5667 13.9,0 0,-41.8666 c -3.3e-4,-11.8867 -4.24871,-22.0483 -12.7,-30.5 -8.45163,-8.5054 -18.62558,-12.7664 -30.56667,-12.7667 z m 4.6,23.9333 c 4.06165,0.3089 8.43872,1.3579 13,2.4334 -0.6736,3.2026 -1.17365,6.5143 -0.73333,10.1334 0.12885,1.0585 0.5801,2.1401 1.83333,1.2 10.14133,-7.6094 9.38347,17.0641 -0.33333,8.3332 -1.0816,-0.972 -1.76811,-1.4437 -2.33334,0.3667 -0.42901,1.3744 -0.6593,3.4507 -0.13333,5.8334 0.52544,2.3805 1.22901,5.3037 1.53333,8.4666 -5.93056,-0.3961 -11.4353,-2.9686 -16.6,-2.2333 -1.85941,0.2647 -2.0521,0.9824 -0.83333,2.2333 8.83339,9.0665 -15.53493,11.2346 -8.73333,0.6001 0.66432,-1.0389 1.53648,-1.6875 0.0999,-1.9335 -4.04309,-0.6917 -8.13573,-0.6924 -12.23333,0.4668 l 0.4,-33.7667 c 4.81493,-1.0716 9.67435,-1.4678 15.13333,-0.5334 1.16544,0.1995 1.2456,0.5321 0.7,1.3334 -7.30186,10.7227 17.30422,9.0098 8.2,-0.6 -1.29472,-1.3666 -0.39962,-2.4424 1.03334,-2.3334 z"
           id="path5277" />
        <path
           inkscape:connector-curvature="0"
           style="font-style:normal;font-variant:normal;font-weight:normal;font-stretch:normal;font-size:32px;line-height:125%;font-family:'SF New Republic';-inkscape-font-specification:'SF New Republic';text-align:start;letter-spacing:0px;word-spacing:0px;writing-mode:lr-tb;text-anchor:start;fill:#ffffff;fill-opacity:1;stroke:none;stroke-width:3.32421803"
           d="m -627.11845,2572.482 0,40.5 c -8.28784,-9.3232 -18.55338,-13.9997 -30.76666,-14 -11.61353,3e-4 -21.52123,4.273 -29.7,12.8333 -8.12373,8.6148 -12.16667,18.7648 -12.16667,30.4334 0,11.8861 4.21537,22.0488 12.66667,30.4999 8.45162,8.397 18.65924,12.6001 30.6,12.6001 11.99545,0 22.16974,-4.2031 30.56666,-12.6001 8.45129,-8.4511 12.69966,-18.6138 12.7,-30.4999 l 0,-69.7667 z m -31.06666,44.8667 c 4.31396,-0.1765 9.162,2.4322 4.86666,7.8667 -0.92554,1.1711 -0.95376,1.6862 0.96667,1.8999 5.42731,0.6037 8.49435,-1.7847 15.23333,-1.2666 0.99531,4.1751 1.20646,7.4075 0.7,9.6999 -0.44469,2.0129 -1.2609,1.2508 -2.06666,0.7335 -10.80534,-6.9367 -8.2327,17.7628 0.36666,8.1999 0.54486,-0.6061 1.75302,-1.0725 2.16667,0.5667 0.20395,0.8064 0.47547,3.9133 0.1,6.0999 -0.54358,3.1657 -2.62635,6.2676 -2,8.3667 -2.7263,0.1583 -4.47648,-0.5174 -6.93334,-1.0999 -2.27498,-0.5393 -4.78618,-1.0829 -8.36666,-0.7667 -1.47296,0.13 -2.24251,0.4032 -0.7,2.3333 5.63029,7.0453 -3.42208,8.9056 -8.26667,7.5666 -2.92736,-0.8089 -4.12459,-3.5337 -0.33333,-7.6333 0.95456,-1.0323 0.89898,-1.6146 -0.93334,-1.8 -2.35434,-0.2383 -14.09781,2.1098 -12.53333,1.3668 0.10176,-2.7883 -0.5352,-4.8909 -1.03333,-6.7335 -0.69888,-2.5839 -0.61195,-5.0863 -0.33334,-7.4999 0.15243,-1.3208 0.95883,-2.0074 2.2,-0.7667 9.67371,9.67 10.78278,-14.9723 1.03334,-8 -1.11776,0.7994 -2.19371,1.3529 -2.33334,-0.5999 -0.33002,-4.6163 0.37424,-8.4374 0.96667,-10.5334 4.10507,1.1218 8.2608,1.4289 12.8,0.9666 0.47744,-0.049 2.51637,10e-5 0.86667,-2.0332 -3.6188,-4.4611 -0.23978,-6.7776 3.56666,-6.9334 z"
           id="path5279" />
        <path
           inkscape:connector-curvature="0"
           id="path5281"
           style="font-style:normal;font-variant:normal;font-weight:normal;font-stretch:normal;font-size:32px;line-height:125%;font-family:'SF New Republic';-inkscape-font-specification:'SF New Republic';text-align:start;letter-spacing:0px;word-spacing:0px;writing-mode:lr-tb;text-anchor:start;fill:#ffffff;fill-opacity:1;stroke:none;stroke-width:3.32421803"
           d="m -550.40858,2661.2309 c 0,6.7064 -2.42671,12.4044 -7.27912,17.0934 -4.85276,4.6889 -10.60515,7.0332 -17.25717,7.0332 -5.67033,0 -10.74124,-1.7445 -15.21273,-5.2343 -4.52485,-3.5435 -7.38754,-8.0146 -8.58739,-13.4128 l 13.41313,-3.6802 c 0.22015,1.2539 0.65412,2.3993 1.30859,3.4351 0.65413,1.036 1.44502,1.922 2.37166,2.6582 0.92699,0.7358 1.96272,1.3219 3.1082,1.7582 1.14481,0.4344 2.34432,0.6542 3.59854,0.6542 2.94441,0 5.45218,-1.0088 7.5243,-3.0261 2.1265,-2.0172 3.18991,-4.4439 3.18991,-7.2789 0,-4.4711 -3.02646,-8.097 -9.0784,-10.878 -5.28872,-2.4534 -9.33757,-4.3348 -12.14522,-5.6434 -2.80831,-1.3085 -4.37609,-2.0717 -4.70332,-2.2899 -6.05194,-4.3073 -9.07773,-10.6048 -9.07773,-18.893 0,-6.706 2.39869,-12.4588 7.19707,-17.2564 4.85243,-4.8528 10.63217,-7.2792 17.33889,-7.2795 5.50655,3e-4 10.49607,1.7723 14.96656,5.3164 4.47115,3.4895 7.33383,7.9606 8.58805,13.4131 l -13.49518,3.5985 c -1.25421,-5.5612 -4.60725,-8.3425 -10.05943,-8.3425 -2.83533,0 -5.34377,1.0361 -7.5243,3.1082 -2.07246,2.0718 -3.10819,4.5529 -3.10819,7.4422 0,4.4169 3.0258,8.0157 9.0784,10.796 5.23436,2.454 9.24184,4.3488 12.0228,5.6847 2.78063,1.3356 4.36175,2.1398 4.74335,2.4123 6.0526,4.3625 9.07873,10.6326 9.07873,18.8113 z" />
      </g>
    </g>
  </g>
</svg>
